<?xml version="1.0" encoding="us-ascii" standalone="no"?><svg xmlns="http://www.w3.org/2000/svg" xmlns:xlink="http://www.w3.org/1999/xlink" contentStyleType="text/css" height="795px" preserveAspectRatio="none" style="width:593px;height:795px;background:#F9F9F9;" version="1.1" viewBox="0 0 593 795" width="593px" zoomAndPan="magnify"><defs/><g><rect fill="#F9F9F9" height="795" style="stroke:none;stroke-width:1.0;" width="593" x="0" y="0"/><!--cluster Frontend--><g id="cluster_Frontend"><path d="M9.5,6 L73.5,6 A5.25,5.25 0 0 1 77,9.5 L84,29.6094 L582.5,29.6094 A3.5,3.5 0 0 1 586,33.1094 L586,223.5 A3.5,3.5 0 0 1 582.5,227 L9.5,227 A3.5,3.5 0 0 1 6,223.5 L6,9.5 A3.5,3.5 0 0 1 9.5,6 " fill="#FAAAC7" style="stroke:#393939;stroke-width:1.0;"/><line style="stroke:#393939;stroke-width:1.0;" x1="6" x2="84" y1="29.6094" y2="29.6094"/><text fill="#000000" font-family="sans-serif" font-size="14" font-weight="bold" lengthAdjust="spacing" textLength="65" x="10" y="22.5332">Frontend</text></g><!--cluster HTTP Request: POST /api/upload--><g id="cluster_HTTP Request: POST /api/upload"><path d="M325.5,67.5 L548.5,67.5 A5.25,5.25 0 0 1 552,71 L559,91.1094 L558.5,91.1094 A3.5,3.5 0 0 1 562,94.6094 L562,182 A3.5,3.5 0 0 1 558.5,185.5 L325.5,185.5 A3.5,3.5 0 0 1 322,182 L322,71 A3.5,3.5 0 0 1 325.5,67.5 " fill="#6574B2" style="stroke:#393939;stroke-width:1.0;"/><line style="stroke:#393939;stroke-width:1.0;" x1="322" x2="559" y1="91.1094" y2="91.1094"/><text fill="#000000" font-family="sans-serif" font-size="14" font-weight="bold" lengthAdjust="spacing" textLength="224" x="326" y="84.0332">HTTP Request: POST /api/upload</text></g><!--cluster HTTP Request: POST /api/merge--><g id="cluster_HTTP Request: POST /api/merge"><path d="M33.5,50 L253.5,50 A5.25,5.25 0 0 1 257,53.5 L264,73.6094 L294.5,73.6094 A3.5,3.5 0 0 1 298,77.1094 L298,199.5 A3.5,3.5 0 0 1 294.5,203 L33.5,203 A3.5,3.5 0 0 1 30,199.5 L30,53.5 A3.5,3.5 0 0 1 33.5,50 " fill="#6574B2" style="stroke:#393939;stroke-width:1.0;"/><line style="stroke:#393939;stroke-width:1.0;" x1="30" x2="264" y1="73.6094" y2="73.6094"/><text fill="#000000" font-family="sans-serif" font-size="14" font-weight="bold" lengthAdjust="spacing" textLength="221" x="34" y="66.5332">HTTP Request: POST /api/merge</text></g><!--cluster Backend--><g id="cluster_Backend"><path d="M143.5,403 L203.5,403 A5.25,5.25 0 0 1 207,406.5 L214,426.6094 L561.5,426.6094 A3.5,3.5 0 0 1 565,430.1094 L565,784.5 A3.5,3.5 0 0 1 561.5,788 L143.5,788 A3.5,3.5 0 0 1 140,784.5 L140,406.5 A3.5,3.5 0 0 1 143.5,403 " fill="#A2D2FF" style="stroke:#393939;stroke-width:1.0;"/><line style="stroke:#393939;stroke-width:1.0;" x1="140" x2="214" y1="426.6094" y2="426.6094"/><text fill="#000000" font-family="sans-serif" font-size="14" font-weight="bold" lengthAdjust="spacing" textLength="61" x="144" y="419.5332">Backend</text></g><!--class formData--><g id="elem_formData"><rect codeLine="7" fill="#F1F1F1" height="65.6094" id="formData" rx="3.5" ry="3.5" style="stroke:#181818;stroke-width:0.5;" width="143" x="359.5" y="103.5"/><ellipse cx="398.35" cy="119.5" fill="#ADD1B2" rx="11" ry="11" style="stroke:#181818;stroke-width:1.0;"/><path d="M401.1156,115.375 Q401.2719,115.1563 401.4594,115.0469 Q401.6469,114.9375 401.8656,114.9375 Q402.2406,114.9375 402.475,115.1953 Q402.7094,115.4531 402.7094,116.0625 L402.7094,117.5156 Q402.7094,118.125 402.475,118.3906 Q402.2406,118.6563 401.8656,118.6563 Q401.5219,118.6563 401.3188,118.4531 Q401.1156,118.2656 401.0063,117.75 Q400.9594,117.3906 400.7719,117.2031 Q400.4438,116.8281 399.8344,116.6094 Q399.225,116.3906 398.6,116.3906 Q397.8344,116.3906 397.2016,116.7188 Q396.5688,117.0469 396.0766,117.7969 Q395.5844,118.5469 395.5844,119.5781 L395.5844,120.6719 Q395.5844,121.9063 396.475,122.7266 Q397.3656,123.5469 398.9594,123.5469 Q399.8969,123.5469 400.5531,123.2969 Q400.9438,123.1406 401.3656,122.7031 Q401.6313,122.4375 401.7797,122.3594 Q401.9281,122.2813 402.1313,122.2813 Q402.4594,122.2813 402.7172,122.5391 Q402.975,122.7969 402.975,123.1406 Q402.975,123.4844 402.6313,123.8906 Q402.1313,124.4688 401.3344,124.7969 Q400.2563,125.25 398.9594,125.25 Q397.4438,125.25 396.2406,124.625 Q395.2563,124.125 394.5688,123.0547 Q393.8813,121.9844 393.8813,120.7031 L393.8813,119.5469 Q393.8813,118.2188 394.4984,117.0703 Q395.1156,115.9219 396.2094,115.3047 Q397.3031,114.6875 398.5375,114.6875 Q399.2719,114.6875 399.9203,114.8516 Q400.5688,115.0156 401.1156,115.375 Z " fill="#000000"/><text fill="#000000" font-family="sans-serif" font-size="14" lengthAdjust="spacing" textLength="58" x="417.65" y="125.2285">formData</text><line style="stroke:#181818;stroke-width:0.5;" x1="360.5" x2="501.5" y1="135.5" y2="135.5"/><line style="stroke:#181818;stroke-width:0.5;" x1="360.5" x2="501.5" y1="143.5" y2="143.5"/><ellipse cx="370.5" cy="157.8047" fill="#84BE84" rx="3" ry="3" style="stroke:#038048;stroke-width:1.0;"/><text fill="#000000" font-family="sans-serif" font-size="14" lengthAdjust="spacing" textLength="117" x="379.5" y="162.0332">files: File[] (binary)</text></g><!--class MergeRequest--><g id="elem_MergeRequest"><rect codeLine="13" fill="#F1F1F1" height="100.8281" id="MergeRequest" rx="3.5" ry="3.5" style="stroke:#181818;stroke-width:0.5;" width="236" x="46" y="86"/><ellipse cx="113.25" cy="102" fill="#ADD1B2" rx="11" ry="11" style="stroke:#181818;stroke-width:1.0;"/><path d="M116.0156,97.875 Q116.1719,97.6563 116.3594,97.5469 Q116.5469,97.4375 116.7656,97.4375 Q117.1406,97.4375 117.375,97.6953 Q117.6094,97.9531 117.6094,98.5625 L117.6094,100.0156 Q117.6094,100.625 117.375,100.8906 Q117.1406,101.1563 116.7656,101.1563 Q116.4219,101.1563 116.2188,100.9531 Q116.0156,100.7656 115.9063,100.25 Q115.8594,99.8906 115.6719,99.7031 Q115.3438,99.3281 114.7344,99.1094 Q114.125,98.8906 113.5,98.8906 Q112.7344,98.8906 112.1016,99.2188 Q111.4688,99.5469 110.9766,100.2969 Q110.4844,101.0469 110.4844,102.0781 L110.4844,103.1719 Q110.4844,104.4063 111.375,105.2266 Q112.2656,106.0469 113.8594,106.0469 Q114.7969,106.0469 115.4531,105.7969 Q115.8438,105.6406 116.2656,105.2031 Q116.5313,104.9375 116.6797,104.8594 Q116.8281,104.7813 117.0313,104.7813 Q117.3594,104.7813 117.6172,105.0391 Q117.875,105.2969 117.875,105.6406 Q117.875,105.9844 117.5313,106.3906 Q117.0313,106.9688 116.2344,107.2969 Q115.1563,107.75 113.8594,107.75 Q112.3438,107.75 111.1406,107.125 Q110.1563,106.625 109.4688,105.5547 Q108.7813,104.4844 108.7813,103.2031 L108.7813,102.0469 Q108.7813,100.7188 109.3984,99.5703 Q110.0156,98.4219 111.1094,97.8047 Q112.2031,97.1875 113.4375,97.1875 Q114.1719,97.1875 114.8203,97.3516 Q115.4688,97.5156 116.0156,97.875 Z " fill="#000000"/><text fill="#000000" font-family="sans-serif" font-size="14" lengthAdjust="spacing" textLength="93" x="133.75" y="107.7285">MergeRequest</text><line style="stroke:#181818;stroke-width:0.5;" x1="47" x2="281" y1="118" y2="118"/><ellipse cx="57" cy="132.3047" fill="none" rx="3" ry="3" style="stroke:#038048;stroke-width:1.0;"/><text fill="#000000" font-family="sans-serif" font-size="14" lengthAdjust="spacing" textLength="95" x="66" y="136.5332">file_ids: string[]</text><ellipse cx="57" cy="149.9141" fill="none" rx="3" ry="3" style="stroke:#038048;stroke-width:1.0;"/><text fill="#000000" font-family="sans-serif" font-size="14" lengthAdjust="spacing" textLength="144" x="66" y="154.1426">output_filename: string</text><ellipse cx="57" cy="167.5234" fill="none" rx="3" ry="3" style="stroke:#038048;stroke-width:1.0;"/><text fill="#000000" font-family="sans-serif" font-size="14" lengthAdjust="spacing" textLength="210" x="66" y="171.752">file_renames: Map&lt;string, string&gt;</text><line style="stroke:#181818;stroke-width:0.5;" x1="47" x2="281" y1="178.8281" y2="178.8281"/></g><!--class FileMetadata--><g id="elem_FileMetadata"><rect codeLine="23" fill="#F1F1F1" height="153.6563" id="FileMetadata" rx="3.5" ry="3.5" style="stroke:#181818;stroke-width:0.5;" width="168" x="347" y="618"/><ellipse cx="386.3" cy="634" fill="#ADD1B2" rx="11" ry="11" style="stroke:#181818;stroke-width:1.0;"/><path d="M389.0656,629.875 Q389.2219,629.6563 389.4094,629.5469 Q389.5969,629.4375 389.8156,629.4375 Q390.1906,629.4375 390.425,629.6953 Q390.6594,629.9531 390.6594,630.5625 L390.6594,632.0156 Q390.6594,632.625 390.425,632.8906 Q390.1906,633.1563 389.8156,633.1563 Q389.4719,633.1563 389.2688,632.9531 Q389.0656,632.7656 388.9563,632.25 Q388.9094,631.8906 388.7219,631.7031 Q388.3938,631.3281 387.7844,631.1094 Q387.175,630.8906 386.55,630.8906 Q385.7844,630.8906 385.1516,631.2188 Q384.5188,631.5469 384.0266,632.2969 Q383.5344,633.0469 383.5344,634.0781 L383.5344,635.1719 Q383.5344,636.4063 384.425,637.2266 Q385.3156,638.0469 386.9094,638.0469 Q387.8469,638.0469 388.5031,637.7969 Q388.8938,637.6406 389.3156,637.2031 Q389.5813,636.9375 389.7297,636.8594 Q389.8781,636.7813 390.0813,636.7813 Q390.4094,636.7813 390.6672,637.0391 Q390.925,637.2969 390.925,637.6406 Q390.925,637.9844 390.5813,638.3906 Q390.0813,638.9688 389.2844,639.2969 Q388.2063,639.75 386.9094,639.75 Q385.3938,639.75 384.1906,639.125 Q383.2063,638.625 382.5188,637.5547 Q381.8313,636.4844 381.8313,635.2031 L381.8313,634.0469 Q381.8313,632.7188 382.4484,631.5703 Q383.0656,630.4219 384.1594,629.8047 Q385.2531,629.1875 386.4875,629.1875 Q387.2219,629.1875 387.8703,629.3516 Q388.5188,629.5156 389.0656,629.875 Z " fill="#000000"/><text fill="#000000" font-family="sans-serif" font-size="14" lengthAdjust="spacing" textLength="82" x="405.7" y="639.7285">FileMetadata</text><line style="stroke:#181818;stroke-width:0.5;" x1="348" x2="514" y1="650" y2="650"/><ellipse cx="358" cy="664.3047" fill="none" rx="3" ry="3" style="stroke:#038048;stroke-width:1.0;"/><text fill="#000000" font-family="sans-serif" font-size="14" lengthAdjust="spacing" textLength="132" x="367" y="668.5332">original_name: string</text><ellipse cx="358" cy="681.9141" fill="none" rx="3" ry="3" style="stroke:#038048;stroke-width:1.0;"/><text fill="#000000" font-family="sans-serif" font-size="14" lengthAdjust="spacing" textLength="131" x="367" y="686.1426">custom_name: string</text><ellipse cx="358" cy="699.5234" fill="none" rx="3" ry="3" style="stroke:#038048;stroke-width:1.0;"/><text fill="#000000" font-family="sans-serif" font-size="14" lengthAdjust="spacing" textLength="103" x="367" y="703.752">extension: string</text><ellipse cx="358" cy="717.1328" fill="none" rx="3" ry="3" style="stroke:#038048;stroke-width:1.0;"/><text fill="#000000" font-family="sans-serif" font-size="14" lengthAdjust="spacing" textLength="90" x="367" y="721.3613">content: []byte</text><ellipse cx="358" cy="734.7422" fill="none" rx="3" ry="3" style="stroke:#038048;stroke-width:1.0;"/><text fill="#000000" font-family="sans-serif" font-size="14" lengthAdjust="spacing" textLength="142" x="367" y="738.9707">comment_prefix: string</text><line style="stroke:#181818;stroke-width:0.5;" x1="348" x2="514" y1="746.0469" y2="746.0469"/><ellipse cx="358" cy="760.3516" fill="#84BE84" rx="3" ry="3" style="stroke:#038048;stroke-width:1.0;"/><text fill="#000000" font-family="sans-serif" font-size="14" lengthAdjust="spacing" textLength="99" x="367" y="764.5801">id: string (UUID)</text></g><!--class MergeRequest--><g id="elem_MergeRequest"><rect codeLine="32" fill="#F1F1F1" height="100.8281" id="MergeRequest" rx="3.5" ry="3.5" style="stroke:#181818;stroke-width:0.5;" width="236" x="313" y="439"/><ellipse cx="380.25" cy="455" fill="#ADD1B2" rx="11" ry="11" style="stroke:#181818;stroke-width:1.0;"/><path d="M383.0156,450.875 Q383.1719,450.6563 383.3594,450.5469 Q383.5469,450.4375 383.7656,450.4375 Q384.1406,450.4375 384.375,450.6953 Q384.6094,450.9531 384.6094,451.5625 L384.6094,453.0156 Q384.6094,453.625 384.375,453.8906 Q384.1406,454.1563 383.7656,454.1563 Q383.4219,454.1563 383.2188,453.9531 Q383.0156,453.7656 382.9063,453.25 Q382.8594,452.8906 382.6719,452.7031 Q382.3438,452.3281 381.7344,452.1094 Q381.125,451.8906 380.5,451.8906 Q379.7344,451.8906 379.1016,452.2188 Q378.4688,452.5469 377.9766,453.2969 Q377.4844,454.0469 377.4844,455.0781 L377.4844,456.1719 Q377.4844,457.4063 378.375,458.2266 Q379.2656,459.0469 380.8594,459.0469 Q381.7969,459.0469 382.4531,458.7969 Q382.8438,458.6406 383.2656,458.2031 Q383.5313,457.9375 383.6797,457.8594 Q383.8281,457.7813 384.0313,457.7813 Q384.3594,457.7813 384.6172,458.0391 Q384.875,458.2969 384.875,458.6406 Q384.875,458.9844 384.5313,459.3906 Q384.0313,459.9688 383.2344,460.2969 Q382.1563,460.75 380.8594,460.75 Q379.3438,460.75 378.1406,460.125 Q377.1563,459.625 376.4688,458.5547 Q375.7813,457.4844 375.7813,456.2031 L375.7813,455.0469 Q375.7813,453.7188 376.3984,452.5703 Q377.0156,451.4219 378.1094,450.8047 Q379.2031,450.1875 380.4375,450.1875 Q381.1719,450.1875 381.8203,450.3516 Q382.4688,450.5156 383.0156,450.875 Z " fill="#000000"/><text fill="#000000" font-family="sans-serif" font-size="14" lengthAdjust="spacing" textLength="93" x="400.75" y="460.7285">MergeRequest</text><line style="stroke:#181818;stroke-width:0.5;" x1="314" x2="548" y1="471" y2="471"/><ellipse cx="324" cy="485.3047" fill="none" rx="3" ry="3" style="stroke:#038048;stroke-width:1.0;"/><text fill="#000000" font-family="sans-serif" font-size="14" lengthAdjust="spacing" textLength="95" x="333" y="489.5332">file_ids: string[]</text><ellipse cx="324" cy="502.9141" fill="none" rx="3" ry="3" style="stroke:#038048;stroke-width:1.0;"/><text fill="#000000" font-family="sans-serif" font-size="14" lengthAdjust="spacing" textLength="144" x="333" y="507.1426">output_filename: string</text><ellipse cx="324" cy="520.5234" fill="none" rx="3" ry="3" style="stroke:#038048;stroke-width:1.0;"/><text fill="#000000" font-family="sans-serif" font-size="14" lengthAdjust="spacing" textLength="210" x="333" y="524.752">file_renames: Map&lt;string, string&gt;</text><line style="stroke:#181818;stroke-width:0.5;" x1="314" x2="548" y1="531.8281" y2="531.8281"/></g><!--class MergeResult--><g id="elem_MergeResult"><rect codeLine="38" fill="#F1F1F1" height="83.2188" id="MergeResult" rx="3.5" ry="3.5" style="stroke:#181818;stroke-width:0.5;" width="122" x="156" y="448"/><ellipse cx="175.5" cy="464" fill="#ADD1B2" rx="11" ry="11" style="stroke:#181818;stroke-width:1.0;"/><path d="M178.2656,459.875 Q178.4219,459.6563 178.6094,459.5469 Q178.7969,459.4375 179.0156,459.4375 Q179.3906,459.4375 179.625,459.6953 Q179.8594,459.9531 179.8594,460.5625 L179.8594,462.0156 Q179.8594,462.625 179.625,462.8906 Q179.3906,463.1563 179.0156,463.1563 Q178.6719,463.1563 178.4688,462.9531 Q178.2656,462.7656 178.1563,462.25 Q178.1094,461.8906 177.9219,461.7031 Q177.5938,461.3281 176.9844,461.1094 Q176.375,460.8906 175.75,460.8906 Q174.9844,460.8906 174.3516,461.2188 Q173.7188,461.5469 173.2266,462.2969 Q172.7344,463.0469 172.7344,464.0781 L172.7344,465.1719 Q172.7344,466.4063 173.625,467.2266 Q174.5156,468.0469 176.1094,468.0469 Q177.0469,468.0469 177.7031,467.7969 Q178.0938,467.6406 178.5156,467.2031 Q178.7813,466.9375 178.9297,466.8594 Q179.0781,466.7813 179.2813,466.7813 Q179.6094,466.7813 179.8672,467.0391 Q180.125,467.2969 180.125,467.6406 Q180.125,467.9844 179.7813,468.3906 Q179.2813,468.9688 178.4844,469.2969 Q177.4063,469.75 176.1094,469.75 Q174.5938,469.75 173.3906,469.125 Q172.4063,468.625 171.7188,467.5547 Q171.0313,466.4844 171.0313,465.2031 L171.0313,464.0469 Q171.0313,462.7188 171.6484,461.5703 Q172.2656,460.4219 173.3594,459.8047 Q174.4531,459.1875 175.6875,459.1875 Q176.4219,459.1875 177.0703,459.3516 Q177.7188,459.5156 178.2656,459.875 Z " fill="#000000"/><text fill="#000000" font-family="sans-serif" font-size="14" lengthAdjust="spacing" textLength="80" x="190.5" y="469.7285">MergeResult</text><line style="stroke:#181818;stroke-width:0.5;" x1="157" x2="277" y1="480" y2="480"/><ellipse cx="167" cy="494.3047" fill="none" rx="3" ry="3" style="stroke:#038048;stroke-width:1.0;"/><text fill="#000000" font-family="sans-serif" font-size="14" lengthAdjust="spacing" textLength="90" x="176" y="498.5332">content: []byte</text><ellipse cx="167" cy="511.9141" fill="none" rx="3" ry="3" style="stroke:#038048;stroke-width:1.0;"/><text fill="#000000" font-family="sans-serif" font-size="14" lengthAdjust="spacing" textLength="96" x="176" y="516.1426">filename: string</text><line style="stroke:#181818;stroke-width:0.5;" x1="157" x2="277" y1="523.2188" y2="523.2188"/></g><!--class MergeRequest--><g id="elem_MergeRequest"><rect fill="#F1F1F1" height="48" id="MergeRequest" rx="3.5" ry="3.5" style="stroke:#181818;stroke-width:0.5;" width="125" x="368.5" y="291"/><ellipse cx="383.5" cy="307" fill="#ADD1B2" rx="11" ry="11" style="stroke:#181818;stroke-width:1.0;"/><path d="M386.2656,302.875 Q386.4219,302.6563 386.6094,302.5469 Q386.7969,302.4375 387.0156,302.4375 Q387.3906,302.4375 387.625,302.6953 Q387.8594,302.9531 387.8594,303.5625 L387.8594,305.0156 Q387.8594,305.625 387.625,305.8906 Q387.3906,306.1563 387.0156,306.1563 Q386.6719,306.1563 386.4688,305.9531 Q386.2656,305.7656 386.1563,305.25 Q386.1094,304.8906 385.9219,304.7031 Q385.5938,304.3281 384.9844,304.1094 Q384.375,303.8906 383.75,303.8906 Q382.9844,303.8906 382.3516,304.2188 Q381.7188,304.5469 381.2266,305.2969 Q380.7344,306.0469 380.7344,307.0781 L380.7344,308.1719 Q380.7344,309.4063 381.625,310.2266 Q382.5156,311.0469 384.1094,311.0469 Q385.0469,311.0469 385.7031,310.7969 Q386.0938,310.6406 386.5156,310.2031 Q386.7813,309.9375 386.9297,309.8594 Q387.0781,309.7813 387.2813,309.7813 Q387.6094,309.7813 387.8672,310.0391 Q388.125,310.2969 388.125,310.6406 Q388.125,310.9844 387.7813,311.3906 Q387.2813,311.9688 386.4844,312.2969 Q385.4063,312.75 384.1094,312.75 Q382.5938,312.75 381.3906,312.125 Q380.4063,311.625 379.7188,310.5547 Q379.0313,309.4844 379.0313,308.2031 L379.0313,307.0469 Q379.0313,305.7188 379.6484,304.5703 Q380.2656,303.4219 381.3594,302.8047 Q382.4531,302.1875 383.6875,302.1875 Q384.4219,302.1875 385.0703,302.3516 Q385.7188,302.5156 386.2656,302.875 Z " fill="#000000"/><text fill="#000000" font-family="sans-serif" font-size="14" lengthAdjust="spacing" textLength="93" x="397.5" y="312.7285">MergeRequest</text><line style="stroke:#181818;stroke-width:0.5;" x1="369.5" x2="492.5" y1="323" y2="323"/><line style="stroke:#181818;stroke-width:0.5;" x1="369.5" x2="492.5" y1="331" y2="331"/></g><!--link formData to MergeRequest--><g id="link_formData_MergeRequest"><path codeLine="44" d="M431,169.87 C431,204.9 431,253.89 431,284.84 " fill="none" id="formData-to-MergeRequest" style="stroke:#191919;stroke-width:1.0;"/><polygon fill="#191919" points="431,290.84,435,281.84,431,285.84,427,281.84,431,290.84" style="stroke:#191919;stroke-width:1.0;"/><text fill="#000000" font-family="sans-serif" font-size="13" lengthAdjust="spacing" textLength="89" x="432" y="257.4951">Transforms into</text></g><!--link MergeRequest to MergeRequest--><g id="link_MergeRequest_MergeRequest"><path codeLine="45" d="M431,339.26 C431,364.65 431,400.03 431,432.79 " fill="none" id="MergeRequest-to-MergeRequest" style="stroke:#191919;stroke-width:1.0;"/><polygon fill="#191919" points="431,438.79,435,429.79,431,433.79,427,429.79,431,438.79" style="stroke:#191919;stroke-width:1.0;"/><text fill="#000000" font-family="sans-serif" font-size="13" lengthAdjust="spacing" textLength="47" x="432" y="383.4951">Maps to</text></g><!--link MergeRequest to FileMetadata--><g id="link_MergeRequest_FileMetadata"><path codeLine="46" d="M431,540.02 C431,563.43 431,585.91 431,611.97 " fill="none" id="MergeRequest-to-FileMetadata" style="stroke:#191919;stroke-width:1.0;"/><polygon fill="#191919" points="431,617.97,435,608.97,431,612.97,427,608.97,431,617.97" style="stroke:#191919;stroke-width:1.0;"/><text fill="#000000" font-family="sans-serif" font-size="13" lengthAdjust="spacing" textLength="92" x="432" y="584.4951">references by id</text></g><!--SRC=[ZL9DQy905BplhtYr5yLQ8RGLf7We8lKWbLPF8l9CNk9YTZVTtO1I_E_Tn1Y_qk8X9BoPOURDovrTaI0Gg0rZPirbWXe5H5gboL2kI7EBqYVm64lGNsD4K1je9It9e0Rt8IBw7VXX02NyFfcCuPE-KpAs2-EFhmcqCU7jD8aLPgANvyxJqij507wCna2ejEYZnM88q8IGnsIwC72lsHpgIovHRnivl6FPSukd81rHjUKeWmh9XUs21yxPMCrbD9kNa4fjajf5nf0ewC0ub-eSS_8H9gzxmaD1x9s4tvtq-UO-zdMY5tXXwDAmGyfi_H5P38xbD8471s-eJwV3VgEOAyqZLrEyk8hN13yrLeagX3Rkc8OhUQd8h-pgdCsNMqlbL0WtNIIQGhuvaUoEeIkg_RFO_skzhTHhQvF6H-VgHIhyyhEKlsAhrJlVf0iJZT9a10DSMiNEu8nVdFBnGkTY6t3yIZZJdPsv2wvRSZlxP62vTUTclm00]--></g></svg>