<?xml version="1.0" encoding="us-ascii" standalone="no"?><svg xmlns="http://www.w3.org/2000/svg" xmlns:xlink="http://www.w3.org/1999/xlink" contentStyleType="text/css" height="706px" preserveAspectRatio="none" style="width:999px;height:706px;background:#F9F9F9;" version="1.1" viewBox="0 0 999 706" width="999px" zoomAndPan="magnify"><defs/><g><rect fill="#F9F9F9" height="706" style="stroke:none;stroke-width:1.0;" width="999" x="0" y="0"/><rect fill="#E7B276" height="520.2734" style="stroke:#393939;stroke-width:1.0;" width="10" x="27.5" y="93.6094"/><rect fill="#FAAAC7" height="520.2734" style="stroke:#393939;stroke-width:1.0;" width="10" x="300.5" y="93.6094"/><rect fill="#A2D2FF" height="117.0547" style="stroke:#393939;stroke-width:1.0;" width="10" x="710.5" y="146.3125"/><rect fill="#A2D2FF" height="160.4063" style="stroke:#393939;stroke-width:1.0;" width="10" x="710.5" y="397.7734"/><line style="stroke:#393939;stroke-width:0.5;stroke-dasharray:5.0,5.0;" x1="32" x2="32" y1="83.6094" y2="622.8828"/><line style="stroke:#393939;stroke-width:0.5;stroke-dasharray:5.0,5.0;" x1="305" x2="305" y1="83.6094" y2="622.8828"/><line style="stroke:#393939;stroke-width:0.5;stroke-dasharray:5.0,5.0;" x1="715" x2="715" y1="83.6094" y2="622.8828"/><text fill="#191919" font-family="sans-serif" font-size="14" font-weight="bold" lengthAdjust="spacing" textLength="39" x="10" y="80.5332">&#1070;&#1079;&#1077;&#1088;</text><ellipse cx="32.5" cy="21.5" fill="#E7B276" rx="16" ry="16" style="stroke:#191919;stroke-width:0.5;"/><path d="M32.5,41.5 C36.5,41.5 39.5,41.5 43.5,37.5 C51.5,37.5 59.5,45.5 59.5,53.5 L59.5,57.5 C59.5,61.5 55.5,65.5 51.5,65.5 L13.5,65.5 C9.5,65.5 5.5,61.5 5.5,57.5 L5.5,53.5 C5.5,45.5 13.5,37.5 21.5,37.5 C25.5,41.5 28.5,41.5 32.5,41.5 " fill="#E7B276" style="stroke:#191919;stroke-width:0.5;"/><text fill="#191919" font-family="sans-serif" font-size="14" font-weight="bold" lengthAdjust="spacing" textLength="39" x="10" y="636.416">&#1070;&#1079;&#1077;&#1088;</text><ellipse cx="32.5" cy="655.9922" fill="#E7B276" rx="16" ry="16" style="stroke:#191919;stroke-width:0.5;"/><path d="M32.5,675.9922 C36.5,675.9922 39.5,675.9922 43.5,671.9922 C51.5,671.9922 59.5,679.9922 59.5,687.9922 L59.5,691.9922 C59.5,695.9922 55.5,699.9922 51.5,699.9922 L13.5,699.9922 C9.5,699.9922 5.5,695.9922 5.5,691.9922 L5.5,687.9922 C5.5,679.9922 13.5,671.9922 21.5,671.9922 C25.5,675.9922 28.5,675.9922 32.5,675.9922 " fill="#E7B276" style="stroke:#191919;stroke-width:0.5;"/><rect fill="#FAAAC7" height="31.6094" rx="3.5" ry="3.5" style="stroke:#191919;stroke-width:1.5;" width="79" x="266" y="51"/><text fill="#F9F9F9" font-family="sans-serif" font-size="14" font-weight="bold" lengthAdjust="spacing" textLength="65" x="273" y="72.5332">Frontend</text><rect fill="#FAAAC7" height="31.6094" rx="3.5" ry="3.5" style="stroke:#191919;stroke-width:1.5;" width="79" x="266" y="621.8828"/><text fill="#F9F9F9" font-family="sans-serif" font-size="14" font-weight="bold" lengthAdjust="spacing" textLength="65" x="273" y="643.416">Frontend</text><rect fill="#A2D2FF" height="31.6094" rx="3.5" ry="3.5" style="stroke:#191919;stroke-width:1.5;" width="75" x="678" y="51"/><text fill="#F9F9F9" font-family="sans-serif" font-size="14" font-weight="bold" lengthAdjust="spacing" textLength="61" x="685" y="72.5332">Backend</text><rect fill="#A2D2FF" height="31.6094" rx="3.5" ry="3.5" style="stroke:#191919;stroke-width:1.5;" width="75" x="678" y="621.8828"/><text fill="#F9F9F9" font-family="sans-serif" font-size="14" font-weight="bold" lengthAdjust="spacing" textLength="61" x="685" y="643.416">Backend</text><rect fill="#E7B276" height="520.2734" style="stroke:#393939;stroke-width:1.0;" width="10" x="27.5" y="93.6094"/><rect fill="#FAAAC7" height="520.2734" style="stroke:#393939;stroke-width:1.0;" width="10" x="300.5" y="93.6094"/><rect fill="#A2D2FF" height="117.0547" style="stroke:#393939;stroke-width:1.0;" width="10" x="710.5" y="146.3125"/><rect fill="#A2D2FF" height="160.4063" style="stroke:#393939;stroke-width:1.0;" width="10" x="710.5" y="397.7734"/><polygon fill="#191919" points="288.5,111.9609,298.5,115.9609,288.5,119.9609,292.5,115.9609" style="stroke:#191919;stroke-width:1.0;"/><line style="stroke:#191919;stroke-width:1.0;" x1="37.5" x2="294.5" y1="115.9609" y2="115.9609"/><text fill="#000000" font-family="sans-serif" font-size="13" lengthAdjust="spacing" textLength="158" x="44.5" y="111.1045">&#1055;&#1077;&#1088;&#1077;&#1090;&#1072;&#1089;&#1082;&#1080;&#1074;&#1072;&#1077;&#1090; &#1092;&#1072;&#1081;&#1083;&#1099; &#1074; UI</text><polygon fill="#191919" points="698.5,142.3125,708.5,146.3125,698.5,150.3125,702.5,146.3125" style="stroke:#191919;stroke-width:1.0;"/><line style="stroke:#191919;stroke-width:1.0;" x1="310.5" x2="704.5" y1="146.3125" y2="146.3125"/><text fill="#000000" font-family="sans-serif" font-size="13" lengthAdjust="spacing" textLength="222" x="317.5" y="141.4561">POST /api/upload (multipart/form-data)</text><line style="stroke:#191919;stroke-width:1.0;" x1="720.5" x2="762.5" y1="176.6641" y2="176.6641"/><line style="stroke:#191919;stroke-width:1.0;" x1="762.5" x2="762.5" y1="176.6641" y2="189.6641"/><line style="stroke:#191919;stroke-width:1.0;" x1="721.5" x2="762.5" y1="189.6641" y2="189.6641"/><polygon fill="#191919" points="731.5,185.6641,721.5,189.6641,731.5,193.6641,727.5,189.6641" style="stroke:#191919;stroke-width:1.0;"/><text fill="#000000" font-family="sans-serif" font-size="13" lengthAdjust="spacing" textLength="247" x="727.5" y="171.8076">&#1055;&#1088;&#1086;&#1074;&#1077;&#1088;&#1103;&#1077;&#1090; &#1088;&#1072;&#1089;&#1096;&#1080;&#1088;&#1077;&#1085;&#1080;&#1103; &#1080; &#1088;&#1072;&#1079;&#1084;&#1077;&#1088; &#1092;&#1072;&#1081;&#1083;&#1086;&#1074;</text><line style="stroke:#191919;stroke-width:1.0;" x1="720.5" x2="762.5" y1="220.0156" y2="220.0156"/><line style="stroke:#191919;stroke-width:1.0;" x1="762.5" x2="762.5" y1="220.0156" y2="233.0156"/><line style="stroke:#191919;stroke-width:1.0;" x1="721.5" x2="762.5" y1="233.0156" y2="233.0156"/><polygon fill="#191919" points="731.5,229.0156,721.5,233.0156,731.5,237.0156,727.5,233.0156" style="stroke:#191919;stroke-width:1.0;"/><text fill="#000000" font-family="sans-serif" font-size="13" lengthAdjust="spacing" textLength="265" x="727.5" y="215.1592">&#1057;&#1086;&#1093;&#1088;&#1072;&#1085;&#1103;&#1077;&#1090; &#1092;&#1072;&#1081;&#1083;&#1099; &#1074;&#1086; &#1074;&#1088;&#1077;&#1084;&#1077;&#1085;&#1085;&#1086;&#1077; &#1093;&#1088;&#1072;&#1085;&#1080;&#1083;&#1080;&#1097;&#1077;</text><polygon fill="#191919" points="321.5,259.3672,311.5,263.3672,321.5,267.3672,317.5,263.3672" style="stroke:#191919;stroke-width:1.0;"/><line style="stroke:#191919;stroke-width:1.0;stroke-dasharray:2.0,2.0;" x1="315.5" x2="714.5" y1="263.3672" y2="263.3672"/><text fill="#000000" font-family="sans-serif" font-size="13" lengthAdjust="spacing" textLength="120" x="327.5" y="258.5107">200 OK + ID &#1092;&#1072;&#1081;&#1083;&#1086;&#1074;</text><line style="stroke:#191919;stroke-width:1.0;" x1="310.5" x2="352.5" y1="293.7188" y2="293.7188"/><line style="stroke:#191919;stroke-width:1.0;" x1="352.5" x2="352.5" y1="293.7188" y2="306.7188"/><line style="stroke:#191919;stroke-width:1.0;" x1="311.5" x2="352.5" y1="306.7188" y2="306.7188"/><polygon fill="#191919" points="321.5,302.7188,311.5,306.7188,321.5,310.7188,317.5,306.7188" style="stroke:#191919;stroke-width:1.0;"/><text fill="#000000" font-family="sans-serif" font-size="13" lengthAdjust="spacing" textLength="175" x="317.5" y="288.8623">&#1054;&#1090;&#1086;&#1073;&#1088;&#1072;&#1078;&#1072;&#1077;&#1090; &#1082;&#1072;&#1088;&#1090;&#1086;&#1095;&#1082;&#1080; &#1092;&#1072;&#1081;&#1083;&#1086;&#1074;</text><polygon fill="#191919" points="288.5,333.0703,298.5,337.0703,288.5,341.0703,292.5,337.0703" style="stroke:#191919;stroke-width:1.0;"/><line style="stroke:#191919;stroke-width:1.0;" x1="37.5" x2="294.5" y1="337.0703" y2="337.0703"/><text fill="#000000" font-family="sans-serif" font-size="13" lengthAdjust="spacing" textLength="228" x="44.5" y="332.2139">&#1053;&#1072;&#1089;&#1090;&#1088;&#1072;&#1080;&#1074;&#1072;&#1077;&#1090; &#1087;&#1086;&#1088;&#1103;&#1076;&#1086;&#1082; &#1080; &#1080;&#1084;&#1077;&#1085;&#1072; &#1092;&#1072;&#1081;&#1083;&#1086;&#1074;</text><polygon fill="#191919" points="288.5,363.4219,298.5,367.4219,288.5,371.4219,292.5,367.4219" style="stroke:#191919;stroke-width:1.0;"/><line style="stroke:#191919;stroke-width:1.0;" x1="37.5" x2="294.5" y1="367.4219" y2="367.4219"/><text fill="#000000" font-family="sans-serif" font-size="13" lengthAdjust="spacing" textLength="147" x="44.5" y="362.5654">&#1053;&#1072;&#1078;&#1080;&#1084;&#1072;&#1077;&#1090; "&#1054;&#1073;&#1098;&#1077;&#1076;&#1080;&#1085;&#1080;&#1090;&#1100;"</text><polygon fill="#191919" points="698.5,393.7734,708.5,397.7734,698.5,401.7734,702.5,397.7734" style="stroke:#191919;stroke-width:1.0;"/><line style="stroke:#191919;stroke-width:1.0;" x1="310.5" x2="704.5" y1="397.7734" y2="397.7734"/><text fill="#000000" font-family="sans-serif" font-size="13" lengthAdjust="spacing" textLength="381" x="317.5" y="392.917">POST /api/merge (JSON &#1089; file_ids, output_filename, file_renames)</text><line style="stroke:#191919;stroke-width:1.0;" x1="720.5" x2="762.5" y1="428.125" y2="428.125"/><line style="stroke:#191919;stroke-width:1.0;" x1="762.5" x2="762.5" y1="428.125" y2="441.125"/><line style="stroke:#191919;stroke-width:1.0;" x1="721.5" x2="762.5" y1="441.125" y2="441.125"/><polygon fill="#191919" points="731.5,437.125,721.5,441.125,731.5,445.125,727.5,441.125" style="stroke:#191919;stroke-width:1.0;"/><text fill="#000000" font-family="sans-serif" font-size="13" lengthAdjust="spacing" textLength="139" x="727.5" y="423.2686">&#1047;&#1072;&#1075;&#1088;&#1091;&#1078;&#1072;&#1077;&#1090; &#1092;&#1072;&#1081;&#1083;&#1099; &#1087;&#1086; ID</text><line style="stroke:#191919;stroke-width:1.0;" x1="720.5" x2="762.5" y1="471.4766" y2="471.4766"/><line style="stroke:#191919;stroke-width:1.0;" x1="762.5" x2="762.5" y1="471.4766" y2="484.4766"/><line style="stroke:#191919;stroke-width:1.0;" x1="721.5" x2="762.5" y1="484.4766" y2="484.4766"/><polygon fill="#191919" points="731.5,480.4766,721.5,484.4766,731.5,488.4766,727.5,484.4766" style="stroke:#191919;stroke-width:1.0;"/><text fill="#000000" font-family="sans-serif" font-size="13" lengthAdjust="spacing" textLength="169" x="727.5" y="466.6201">&#1055;&#1088;&#1080;&#1084;&#1077;&#1085;&#1103;&#1077;&#1090; &#1087;&#1077;&#1088;&#1077;&#1080;&#1084;&#1077;&#1085;&#1086;&#1074;&#1072;&#1085;&#1080;&#1103;</text><line style="stroke:#191919;stroke-width:1.0;" x1="720.5" x2="762.5" y1="514.8281" y2="514.8281"/><line style="stroke:#191919;stroke-width:1.0;" x1="762.5" x2="762.5" y1="514.8281" y2="527.8281"/><line style="stroke:#191919;stroke-width:1.0;" x1="721.5" x2="762.5" y1="527.8281" y2="527.8281"/><polygon fill="#191919" points="731.5,523.8281,721.5,527.8281,731.5,531.8281,727.5,527.8281" style="stroke:#191919;stroke-width:1.0;"/><text fill="#000000" font-family="sans-serif" font-size="13" lengthAdjust="spacing" textLength="254" x="727.5" y="509.9717">&#1043;&#1077;&#1085;&#1077;&#1088;&#1080;&#1088;&#1091;&#1077;&#1090; &#1088;&#1077;&#1079;&#1091;&#1083;&#1100;&#1090;&#1072;&#1090; &#1089; &#1092;&#1086;&#1088;&#1084;&#1072;&#1090;&#1080;&#1088;&#1086;&#1074;&#1072;&#1085;&#1080;&#1077;&#1084;</text><polygon fill="#191919" points="321.5,554.1797,311.5,558.1797,321.5,562.1797,317.5,558.1797" style="stroke:#191919;stroke-width:1.0;"/><line style="stroke:#191919;stroke-width:1.0;stroke-dasharray:2.0,2.0;" x1="315.5" x2="714.5" y1="558.1797" y2="558.1797"/><text fill="#000000" font-family="sans-serif" font-size="13" lengthAdjust="spacing" textLength="344" x="327.5" y="553.3232">&#1042;&#1086;&#1079;&#1074;&#1088;&#1072;&#1097;&#1072;&#1077;&#1090; &#1088;&#1077;&#1079;&#1091;&#1083;&#1100;&#1090;&#1072;&#1090; &#1082;&#1072;&#1082; &#1092;&#1072;&#1081;&#1083; (application/octet-stream)</text><polygon fill="#191919" points="48.5,600.8828,38.5,604.8828,48.5,608.8828,44.5,604.8828" style="stroke:#191919;stroke-width:1.0;"/><line style="stroke:#191919;stroke-width:1.0;stroke-dasharray:2.0,2.0;" x1="42.5" x2="299.5" y1="604.8828" y2="604.8828"/><text fill="#000000" font-family="sans-serif" font-size="13" lengthAdjust="spacing" textLength="216" x="54.5" y="583.6748">&#1040;&#1074;&#1090;&#1086;&#1084;&#1072;&#1090;&#1080;&#1095;&#1077;&#1089;&#1082;&#1080; &#1089;&#1082;&#1072;&#1095;&#1080;&#1074;&#1072;&#1077;&#1090; &#1088;&#1077;&#1079;&#1091;&#1083;&#1100;&#1090;&#1072;&#1090;</text><text fill="#000000" font-family="sans-serif" font-size="13" lengthAdjust="spacing" textLength="239" x="54.5" y="600.0264">&#1080;&#1083;&#1080; &#1087;&#1086;&#1082;&#1072;&#1079;&#1099;&#1074;&#1072;&#1077;&#1090; &#1089;&#1089;&#1099;&#1083;&#1082;&#1091; &#1076;&#1083;&#1103; &#1089;&#1082;&#1072;&#1095;&#1080;&#1074;&#1072;&#1085;&#1080;&#1103;</text><!--SRC=[bLHDRzD04BtxLmp99LKQfSg1I1mu85If816am0sfsjXhiEelsHiXRaqA2f1AhU30YIB-03Ab8I5fmb_O_KVChEt42QGIYk9uTsVUl7dpDhV42-vny5WK6qPyvFWXYvW7p1H1j1_ueYrUkHmwWMjjdgOdx2MF0uyN3l4f7DC9cIys00oT1oNvJOxbI1sNWCNGZNa4PTxiD9gtZK8kbFOZJEU-fSFiR05bcp5cDjT3xp7pA8_ifEzGPWshOTk6GHMgrMMD78csCYpDeNPtLUGEo2_44BzzcQYUdCg9l9G9hK6znfTVSgQ682_XwS4IaI3oweIU4a2mnwts4wYpqAbtGpTW5bIyhYiSQg5k1v5NivXWEqQUMu0X8aXZWSMHZZfB2HmJ9_LMJeYXdEFl6SY9taTbhobqoP9ojo1_bGlrHYVDS-HYQtA13rtXMbUP8zG8yWmKP8Q5tydH2hqeOQs69HfxUz1w25KukBzEg2XPKVKBr7iXl-iIFpEzKVm4UyS3DQ11h2FzStYVjK1z3RCQdFoD42JY5MPEIJ4yJ7jBra6tO28bIaZHIl82YRx7z2lSfI7qrMd9-1ytU3nwpg7oeDrw1Ae7jkFoGyUATo7eYh0h3cd3PnxVJOyYlOYt6UKJ4lk1_PqibIkE4tl7ATpWiKoAp0aOh_s_L6YXPTHUsmBoKSTHraIpoAmwacDSpDIflafzQXHvuI18IToRPFvEFOLcky5FyWE6ZhKh4xHUigq6MGOddFSF5HQ6hcCouGH-FJ055xLOH9nvEyLvOJazUAnpZZN8YJd50LRgfURhQJyEYdy8Vn5uvgVNGykkoOpLS1NVmyyGpwVg1D0zCxo-6x2fpdy0]--></g></svg>